<?xml version="1.0" encoding="UTF-8"?>
<svg id="Layer_2" data-name="Layer 2" xmlns="http://www.w3.org/2000/svg" viewBox="0 0 125.73 125.73">
  <defs>
    <style>
      .cls-1 {
        fill: #003e4f;
      }
    </style>
  </defs>
  <g id="Layer_1-2" data-name="Layer 1">
    <path class="cls-1" d="M60.6.04c26.86-.94,50.12,14.98,60.03,38-.01,0-.02,0-.03,0-2.14-.16-4.26-.18-6.35-.06-9.76.53-19.38-2.44-27.27-8.2-7.07-5.16-15.87-8.11-25.36-7.83-21.92.65-39.64,18.89-39.69,40.82-.05,22.66,18.3,41.04,40.94,41.04,2.35,0,4.64-.21,6.88-.59,1.65-.28,3.26-.66,4.83-1.13.13-.04.25-.07.38-.11,16.71-5.16,28.85-20.71,28.85-39.11,0,0,0-.01,0-.02,0-1.17-1.01-2.11-2.18-2.05-15.19.75-27.79,12.73-28.93,28.28-.02.3-.03.59-.04.89-.09-1.84-.09-3.7.05-5.59,1.28-17.45,12.49-31.79,27.68-37.92,6.09-2.46,12.83-3.6,19.83-3.09h.03c1.51.11,2.78,1.16,3.19,2.62,1.5,5.37,2.3,11.03,2.3,16.88,0,2.49-.15,4.95-.43,7.37-2.52,21.54-15.92,39.76-34.57,48.99-1.08.54-2.19,1.04-3.3,1.51-1.82.77-3.67,1.47-5.57,2.07-5.99,1.89-12.36,2.92-18.98,2.92-35.22,0-63.68-28.97-62.84-64.38C.8,28.28,27.55,1.2,60.6.04Z"/>
  </g>
</svg>