<?xml version="1.0" encoding="UTF-8"?>
<svg id="Layer_2" data-name="Layer 2" xmlns="http://www.w3.org/2000/svg" viewBox="0 0 140.93 227.86">
  <defs>
    <style>
      .cls-1 {
        fill: #003e4f;
      }
    </style>
  </defs>
  <g id="Layer_1-2" data-name="Layer 1">
    <path class="cls-1" d="M68.2.04c26.86-.94,50.12,14.98,60.03,38-.01,0-.02,0-.03,0-2.14-.16-4.26-.18-6.35-.06-9.76.53-19.38-2.44-27.27-8.2-7.07-5.16-15.87-8.11-25.36-7.83-21.92.65-39.64,18.89-39.69,40.82-.05,22.66,18.3,41.04,40.94,41.04,2.35,0,4.64-.21,6.88-.59,1.65-.28,3.26-.66,4.83-1.13.13-.04.25-.07.38-.11,16.71-5.16,28.85-20.71,28.85-39.11,0,0,0-.01,0-.02,0-1.17-1.01-2.11-2.18-2.05-15.19.75-27.79,12.73-28.93,28.28-.02.3-.03.59-.04.89-.09-1.84-.09-3.7.05-5.59,1.28-17.45,12.49-31.79,27.68-37.92,6.09-2.46,12.83-3.6,19.83-3.09h.03c1.51.11,2.78,1.16,3.19,2.62,1.5,5.37,2.3,11.03,2.3,16.88,0,2.49-.15,4.95-.43,7.37-2.52,21.54-15.92,39.76-34.57,48.99-1.08.54-2.19,1.04-3.3,1.51-1.82.77-3.67,1.47-5.57,2.07-5.99,1.89-12.36,2.92-18.98,2.92-35.22,0-63.68-28.97-62.84-64.38C8.4,28.28,35.15,1.2,68.2.04Z"/>
    <g>
      <path class="cls-1" d="M25.87,164.94c0,2.23-.32,4.26-.96,6.09-.64,1.83-1.53,3.38-2.69,4.66-1.15,1.28-2.51,2.27-4.08,2.99s-3.31,1.07-5.21,1.07-3.64-.36-5.21-1.07c-1.57-.71-2.93-1.71-4.08-2.99-1.15-1.28-2.05-2.83-2.69-4.66-.64-1.83-.96-3.85-.96-6.09s.32-4.26.96-6.08c.64-1.83,1.53-3.39,2.69-4.69,1.15-1.3,2.51-2.3,4.08-3.02,1.57-.71,3.31-1.07,5.21-1.07s3.64.36,5.21,1.07c1.57.71,2.93,1.72,4.08,3.02,1.15,1.3,2.05,2.86,2.69,4.69s.96,3.86.96,6.08ZM22.09,164.94c0-3.54-.82-6.37-2.46-8.47-1.64-2.1-3.87-3.15-6.69-3.15s-5.05,1.05-6.69,3.15c-1.64,2.1-2.46,4.92-2.46,8.47s.82,6.36,2.46,8.44c1.64,2.08,3.87,3.12,6.69,3.12s5.04-1.04,6.69-3.12c1.64-2.08,2.46-4.9,2.46-8.44Z"/>
      <path class="cls-1" d="M42.18,175.24c.77-1.57,1.56-3.37,2.36-5.4s1.58-4.13,2.34-6.3c.75-2.17,1.45-4.37,2.09-6.58s1.18-4.28,1.62-6.22h3.57c-.66,2.6-1.4,5.15-2.21,7.67s-1.66,4.99-2.57,7.4c-.9,2.41-1.84,4.73-2.81,6.96-.97,2.23-1.92,4.33-2.84,6.3h-3.32c-.96-1.97-1.91-4.07-2.87-6.3-.96-2.23-1.89-4.55-2.78-6.96-.9-2.41-1.76-4.88-2.57-7.4-.81-2.52-1.54-5.08-2.21-7.67h3.78c.44,1.94.98,4.01,1.62,6.22.64,2.21,1.34,4.4,2.09,6.58.75,2.18,1.53,4.28,2.34,6.3.81,2.03,1.59,3.83,2.36,5.4Z"/>
      <path class="cls-1" d="M68.52,150.08c1.86,0,3.45.27,4.74.79,1.3.53,2.35,1.26,3.15,2.19.8.93,1.39,2.04,1.75,3.32.37,1.28.55,2.67.55,4.17v17.87c-.37.11-.89.23-1.59.36-.69.13-1.5.27-2.41.41s-1.93.26-3.04.36c-1.12.09-2.26.14-3.43.14-1.5,0-2.88-.16-4.14-.49-1.26-.33-2.36-.85-3.29-1.56-.93-.71-1.66-1.63-2.19-2.74-.53-1.11-.8-2.47-.8-4.08s.29-2.85.88-3.95,1.41-2,2.47-2.71c1.06-.71,2.32-1.23,3.78-1.56,1.46-.33,3.05-.49,4.77-.49.51,0,1.05.03,1.62.08.57.06,1.12.13,1.64.22.53.09.99.18,1.37.27.38.09.65.17.8.25v-1.75c0-.99-.07-1.95-.22-2.88-.14-.93-.46-1.77-.96-2.52-.5-.75-1.19-1.35-2.08-1.81-.89-.46-2.07-.68-3.53-.68-2.08,0-3.64.15-4.66.44-1.02.29-1.77.53-2.25.71l-.49-3.12c.62-.29,1.58-.57,2.88-.82,1.3-.25,2.86-.38,4.69-.38ZM68.85,176.5c1.39,0,2.6-.05,3.65-.14,1.04-.09,1.93-.21,2.66-.36v-9.98c-.4-.18-1.04-.37-1.92-.57-.88-.2-2.08-.3-3.62-.3-.88,0-1.79.06-2.74.19-.95.13-1.83.4-2.63.82-.8.42-1.46,1-1.97,1.73-.51.73-.77,1.7-.77,2.91,0,1.06.17,1.96.52,2.69.35.73.84,1.32,1.48,1.75.64.44,1.4.76,2.3.96.89.2,1.91.3,3.04.3Z"/>
      <path class="cls-1" d="M93.63,176.56c2.05,0,3.73-.34,5.07-1.01,1.33-.68,2-1.82,2-3.43,0-.77-.12-1.42-.36-1.97s-.63-1.04-1.18-1.48c-.55-.44-1.27-.86-2.16-1.26-.9-.4-2-.88-3.32-1.42-1.06-.44-2.07-.89-3.02-1.34-.95-.46-1.79-.99-2.52-1.59-.73-.6-1.32-1.33-1.75-2.17-.44-.84-.66-1.86-.66-3.07,0-2.3.87-4.17,2.6-5.59,1.74-1.42,4.12-2.14,7.15-2.14,1.94,0,3.53.16,4.8.49,1.26.33,2.15.62,2.66.88l-.82,3.18c-.44-.22-1.18-.51-2.22-.88s-2.57-.55-4.58-.55c-.8,0-1.56.08-2.27.25-.71.16-1.34.42-1.89.77-.55.35-.99.79-1.32,1.32-.33.53-.49,1.18-.49,1.95s.14,1.43.44,1.98.72,1.04,1.29,1.46c.57.42,1.26.81,2.08,1.18.82.36,1.76.76,2.82,1.2,1.1.44,2.15.88,3.15,1.34,1.01.45,1.89,1,2.66,1.64.77.64,1.39,1.41,1.86,2.3.48.9.71,2.02.71,3.37,0,2.56-.96,4.5-2.88,5.81s-4.54,1.97-7.87,1.97c-2.49,0-4.39-.21-5.7-.63s-2.19-.74-2.63-.96l.93-3.23c.11.07.35.19.71.36.36.16.86.35,1.48.55.62.2,1.36.38,2.22.52.86.15,1.86.22,2.99.22Z"/>
      <path class="cls-1" d="M115.66,142.19c0,.84-.25,1.51-.77,2s-1.13.74-1.86.74-1.35-.25-1.86-.74c-.51-.49-.77-1.16-.77-2s.25-1.51.77-2c.51-.49,1.13-.74,1.86-.74s1.35.25,1.86.74.77,1.16.77,2ZM114.84,179.08h-3.56v-28.34h3.56v28.34Z"/>
      <path class="cls-1" d="M130.08,176.56c2.05,0,3.73-.34,5.07-1.01,1.33-.68,2-1.82,2-3.43,0-.77-.12-1.42-.36-1.97s-.63-1.04-1.18-1.48c-.55-.44-1.27-.86-2.16-1.26-.9-.4-2-.88-3.32-1.42-1.06-.44-2.07-.89-3.02-1.34-.95-.46-1.79-.99-2.52-1.59-.73-.6-1.32-1.33-1.75-2.17-.44-.84-.66-1.86-.66-3.07,0-2.3.87-4.17,2.6-5.59,1.74-1.42,4.12-2.14,7.15-2.14,1.94,0,3.53.16,4.8.49,1.26.33,2.15.62,2.66.88l-.82,3.18c-.44-.22-1.18-.51-2.22-.88s-2.57-.55-4.58-.55c-.8,0-1.56.08-2.27.25-.71.16-1.34.42-1.89.77-.55.35-.99.79-1.32,1.32-.33.53-.49,1.18-.49,1.95s.14,1.43.44,1.98.72,1.04,1.29,1.46c.57.42,1.26.81,2.08,1.18.82.36,1.76.76,2.82,1.2,1.1.44,2.15.88,3.15,1.34,1.01.45,1.89,1,2.66,1.64.77.64,1.39,1.41,1.86,2.3.48.9.71,2.02.71,3.37,0,2.56-.96,4.5-2.88,5.81s-4.54,1.97-7.87,1.97c-2.49,0-4.39-.21-5.7-.63s-2.19-.74-2.63-.96l.93-3.23c.11.07.35.19.71.36.36.16.86.35,1.48.55.62.2,1.36.38,2.22.52.86.15,1.86.22,2.99.22Z"/>
      <path class="cls-1" d="M20.17,214.27c-.22.18-.55.39-.99.63-.44.24-.98.48-1.62.74-.64.26-1.37.47-2.19.63-.82.16-1.75.25-2.77.25-1.64,0-3.23-.26-4.77-.77-1.54-.51-2.88-1.32-4.03-2.41-1.15-1.1-2.08-2.51-2.77-4.25-.69-1.74-1.04-3.85-1.04-6.33,0-2.01.31-3.87.93-5.59.62-1.72,1.51-3.21,2.66-4.47,1.15-1.26,2.56-2.25,4.22-2.96,1.66-.71,3.53-1.07,5.62-1.07,2.63,0,4.74.17,6.33.52s2.9.68,3.92,1.01v25.87c0,4.24-1.09,7.26-3.29,9.07-2.19,1.81-5.5,2.71-9.92,2.71-1.83,0-3.48-.14-4.96-.41-1.48-.27-2.75-.59-3.81-.96l.71-3.23c.88.4,2.07.75,3.59,1.04,1.51.29,3.04.44,4.58.44,3.36,0,5.8-.65,7.32-1.95,1.51-1.3,2.27-3.52,2.27-6.66v-1.86ZM20.12,192.67c-.62-.18-1.43-.36-2.41-.52-.99-.16-2.4-.25-4.22-.25-1.53,0-2.9.27-4.08.79-1.19.53-2.2,1.28-3.04,2.25-.84.97-1.48,2.12-1.92,3.45-.44,1.33-.66,2.81-.66,4.41,0,1.86.25,3.46.77,4.8.51,1.33,1.18,2.42,2,3.26s1.76,1.45,2.82,1.84c1.06.38,2.14.58,3.23.58,1.61,0,3.08-.24,4.41-.71,1.33-.47,2.37-1.02,3.1-1.64v-18.25Z"/>
      <path class="cls-1" d="M42.76,188.67c1.17,0,2.27.09,3.32.27,1.04.18,1.76.37,2.16.55l-.71,3.07c-.29-.15-.89-.3-1.78-.47-.9-.16-2.08-.25-3.54-.25-1.53,0-2.77.11-3.7.33-.93.22-1.54.4-1.84.55v24.83h-3.56v-27.02c.91-.4,2.17-.81,3.78-1.23s3.56-.63,5.87-.63Z"/>
      <path class="cls-1" d="M77.78,203.41c0,2.23-.32,4.26-.96,6.09-.64,1.83-1.53,3.38-2.69,4.66-1.15,1.28-2.51,2.27-4.08,2.99s-3.31,1.07-5.21,1.07-3.64-.36-5.21-1.07c-1.57-.71-2.93-1.71-4.08-2.99-1.15-1.28-2.05-2.83-2.69-4.66-.64-1.83-.96-3.85-.96-6.09s.32-4.26.96-6.08c.64-1.83,1.53-3.39,2.69-4.69,1.15-1.3,2.51-2.3,4.08-3.02,1.57-.71,3.31-1.07,5.21-1.07s3.64.36,5.21,1.07c1.57.71,2.93,1.72,4.08,3.02,1.15,1.3,2.05,2.86,2.69,4.69s.96,3.86.96,6.08ZM74,203.41c0-3.54-.82-6.37-2.46-8.47-1.64-2.1-3.87-3.15-6.69-3.15s-5.05,1.05-6.69,3.15c-1.64,2.1-2.46,4.92-2.46,8.47s.82,6.36,2.46,8.44c1.64,2.08,3.87,3.12,6.69,3.12s5.04-1.04,6.69-3.12c1.64-2.08,2.46-4.9,2.46-8.44Z"/>
      <path class="cls-1" d="M107.27,216.57c-1.06.29-2.48.62-4.28.99s-3.98.55-6.58.55c-2.12,0-3.89-.31-5.32-.93-1.43-.62-2.58-1.5-3.46-2.63-.88-1.13-1.51-2.5-1.89-4.11-.38-1.61-.57-3.38-.57-5.32v-15.9h3.56v14.75c0,2.01.15,3.71.44,5.1.29,1.39.77,2.51,1.42,3.37.66.86,1.51,1.48,2.55,1.86,1.04.38,2.31.58,3.81.58,1.68,0,3.14-.09,4.38-.27,1.24-.18,2.03-.35,2.36-.49v-24.89h3.56v27.35Z"/>
      <path class="cls-1" d="M120.27,227.7h-3.56v-37.49c1.06-.37,2.41-.71,4.06-1.04,1.64-.33,3.73-.49,6.25-.49,2.08,0,3.98.34,5.67,1.01,1.7.68,3.16,1.65,4.39,2.93s2.17,2.83,2.85,4.66c.68,1.83,1.01,3.89,1.01,6.19,0,2.16-.28,4.14-.85,5.95-.57,1.81-1.4,3.36-2.49,4.66-1.1,1.3-2.44,2.31-4.03,3.04-1.59.73-3.41,1.1-5.45,1.1-1.86,0-3.48-.27-4.85-.79-1.37-.53-2.37-1.03-2.99-1.51v11.79ZM120.27,212.46c.33.26.74.53,1.23.82.49.29,1.07.57,1.73.82.66.26,1.37.47,2.14.63s1.57.25,2.41.25c1.76,0,3.22-.3,4.41-.9,1.19-.6,2.15-1.42,2.88-2.47.73-1.04,1.26-2.27,1.59-3.67s.49-2.9.49-4.47c0-3.73-.93-6.59-2.79-8.58-1.86-1.99-4.33-2.99-7.4-2.99-1.75,0-3.17.08-4.25.25-1.08.16-1.89.34-2.44.52v19.79Z"/>
    </g>
  </g>
</svg>